<?xml version="1.0" standalone="no"?>
<!DOCTYPE svg PUBLIC "-//W3C//DTD SVG 20010904//EN"
 "http://www.w3.org/TR/2001/REC-SVG-20010904/DTD/svg10.dtd">
<svg version="1.0" xmlns="http://www.w3.org/2000/svg"
 width="700.000000pt" height="700.000000pt" viewBox="0 0 700.000000 700.000000"
 preserveAspectRatio="xMidYMid meet">
<metadata>
Created by potrace 1.14, written by Peter Selinger 2001-2017
</metadata>
<g transform="translate(0.000000,700.000000) scale(0.100000,-0.100000)"
fill="#000000" stroke="none">
<path d="M1410 6993 c-100 -10 -237 -39 -340 -73 -538 -175 -928 -618 -1042
-1183 l-23 -112 0 -2125 0 -2125 23 -112 c65 -321 211 -592 438 -815 180 -177
368 -291 604 -368 248 -81 53 -75 2435 -75 l2120 0 112 23 c631 128 1107 604
1235 1235 l23 112 0 2125 0 2125 -23 112 c-128 633 -593 1100 -1229 1235
l-108 23 -2095 1 c-1152 1 -2111 -1 -2130 -3z m1820 -3468 l0 -3265 -383 0
c-377 0 -383 0 -427 22 -24 13 -53 36 -64 51 -21 28 -21 34 -24 1355 -4 1614
1 1739 87 2092 55 230 230 757 353 1065 81 201 115 302 134 399 19 98 33 457
34 862 l0 291 -25 11 c-25 11 -25 14 -25 127 0 113 0 116 25 127 23 10 25 17
25 70 l0 58 145 0 145 0 0 -3265z m780 3207 c0 -53 2 -60 25 -70 25 -11 25
-13 25 -132 0 -89 -3 -120 -12 -120 -37 -1 -37 -3 -28 -525 12 -661 9 -642
170 -1055 110 -282 288 -811 334 -993 41 -163 71 -337 86 -497 6 -72 10 -644
10 -1545 0 -1387 -1 -1431 -19 -1461 -11 -17 -39 -41 -63 -53 -43 -20 -57 -21
-426 -21 l-382 0 0 3265 0 3265 140 0 140 0 0 -58z"/>
</g>
</svg>
