<?xml version="1.0" standalone="no"?>
<!DOCTYPE svg PUBLIC "-//W3C//DTD SVG 20010904//EN" "http://www.w3.org/TR/2001/REC-SVG-20010904/DTD/svg10.dtd">
<svg version="1.0" xmlns="http://www.w3.org/2000/svg" width="700.000000pt" height="700.000000pt"
  viewBox="0 0 700.000000 700.000000" preserveAspectRatio="xMidYMid meet">
  <metadata>
    Created by potrace 1.14, written by Peter Selinger 2001-2017
  </metadata>
  <g transform="translate(0.000000,700.000000) scale(0.100000,-0.100000)" fill="#000000" stroke="none">
    <path d="M1419 6996 c-2 -2 -35 -7 -72 -10 -131 -13 -337 -76 -482 -148 -419
-210 -724 -597 -825 -1050 -11 -47 -23 -110 -27 -140 -10 -67 -11 -4214 -1
-4288 54 -410 259 -768 590 -1032 202 -161 474 -275 753 -316 28 -4 997 -7
2155 -7 1726 0 2118 2 2175 13 39 8 84 16 100 19 17 2 83 22 148 44 396 131
718 411 906 787 37 74 105 257 117 316 41 201 39 74 39 2321 l0 2120 -23 112
c-82 404 -309 754 -638 983 -135 93 -386 210 -507 234 -12 3 -48 10 -79 16
-31 6 -72 14 -90 18 -35 7 -4232 15 -4239 8z m1811 -3468 l0 -3268 -383 0
c-377 0 -383 0 -427 23 -24 12 -53 35 -64 50 -21 28 -21 31 -21 1440 1 1275 3
1508 21 1657 17 150 59 356 108 522 60 206 229 696 315 910 92 230 122 329
136 443 4 28 8 61 11 75 2 14 7 207 10 430 4 223 7 441 8 485 2 95 0 104 -29
115 -22 8 -23 14 -24 124 l0 115 27 13 c25 12 27 18 26 70 -1 67 -12 63 168
63 l118 0 0 -3267z m774 3261 c3 -2 6 -30 7 -61 2 -51 5 -58 29 -68 l26 -11
-1 -116 c-1 -117 -1 -117 -27 -125 l-26 -9 4 -282 c11 -777 14 -814 60 -976
14 -47 60 -176 104 -286 129 -328 274 -755 335 -988 37 -139 41 -156 50 -212
3 -16 8 -37 10 -45 10 -36 36 -265 42 -375 3 -66 7 -737 7 -1490 0 -1348 0
-1371 -19 -1405 -11 -18 -40 -44 -64 -57 -44 -23 -45 -23 -430 -23 l-386 0 0
3262 0 3263 30 5 c36 6 243 5 249 -1z" />
  </g>
</svg>