<svg width="28" height="28" viewBox="0 0 28 28" fill="none" xmlns="http://www.w3.org/2000/svg">
  <path
    d="M19.8332 26.8332C21.7776 26.8332 23.4304 26.1526 24.7915 24.7915C26.1526 23.4304 26.8332 21.7776 26.8332 19.8332H25.0832C25.0832 21.2915 24.5726 22.5313 23.5513 23.5525C22.5301 24.5737 21.2907 25.0839 19.8332 25.0832V26.8332ZM1.1665 8.1665H2.9165C2.9165 6.70817 3.42711 5.46839 4.44834 4.44717C5.46956 3.42595 6.70895 2.91573 8.1665 2.9165V1.1665C6.22206 1.1665 4.56928 1.84706 3.20817 3.20817C1.84706 4.56928 1.1665 6.22206 1.1665 8.1665ZM4.11234 23.8873C2.16789 21.9429 1.19567 19.6096 1.19567 16.8873C1.19567 14.1651 2.16789 11.8318 4.11234 9.88734L8.22484 5.74567C8.78873 5.18178 9.47434 4.89984 10.2817 4.89984C11.089 4.89984 11.7742 5.18178 12.3373 5.74567C12.4151 5.82345 12.4882 5.90123 12.5567 5.979C12.6251 6.05678 12.6784 6.13456 12.7165 6.21234L15.6623 3.2665C16.2262 2.70261 16.9114 2.42067 17.718 2.42067C18.5246 2.42067 19.2102 2.70261 19.7748 3.2665C19.8721 3.36373 19.9498 3.45123 20.0082 3.529L20.1832 3.76234C20.7471 3.37345 21.379 3.20817 22.079 3.2665C22.779 3.32484 23.3818 3.60678 23.8873 4.11234C24.3346 4.55956 24.6068 5.07017 24.704 5.64417C24.8012 6.21817 24.7332 6.78673 24.4998 7.34984C24.6165 7.40817 24.7281 7.47623 24.8347 7.554C24.9412 7.63178 25.0435 7.71928 25.1415 7.8165C25.7054 8.38039 25.9873 9.066 25.9873 9.87334C25.9873 10.6807 25.7054 11.3659 25.1415 11.929L24.6748 12.3957C24.7526 12.4346 24.8304 12.4882 24.9082 12.5567C24.9859 12.6251 25.0637 12.6978 25.1415 12.7748C25.7054 13.3387 25.9873 14.0243 25.9873 14.8317C25.9873 15.639 25.7054 16.3242 25.1415 16.8873L18.1123 23.8873C16.1679 25.8318 13.8346 26.804 11.1123 26.804C8.39011 26.804 6.05678 25.8318 4.11234 23.8873ZM5.74567 22.254C6.48456 22.9929 7.32067 23.5471 8.254 23.9165C9.18734 24.2859 10.1401 24.4707 11.1123 24.4707C12.0846 24.4707 13.0373 24.2859 13.9707 23.9165C14.904 23.5471 15.7401 22.9929 16.479 22.254L23.479 15.2248C23.5957 15.1082 23.654 14.9721 23.654 14.8165C23.654 14.6609 23.5957 14.5248 23.479 14.4082C23.3623 14.2915 23.2262 14.2332 23.0707 14.2332C22.9151 14.2332 22.779 14.2915 22.6623 14.4082L18.5498 18.5498L16.8873 16.8873L23.479 10.2957C23.5957 10.179 23.654 10.0378 23.654 9.87217C23.654 9.7065 23.5957 9.56573 23.479 9.44984C23.3623 9.35262 23.2262 9.29895 23.0707 9.28884C22.9151 9.27873 22.779 9.33239 22.6623 9.44984L16.8873 15.2248L15.2248 13.5915L22.254 6.56234C22.3707 6.44567 22.429 6.30956 22.429 6.154C22.429 5.99845 22.3707 5.86234 22.254 5.74567C22.1373 5.629 22.0012 5.57067 21.8457 5.57067C21.6901 5.57067 21.554 5.629 21.4373 5.74567L14.4082 12.7748L12.7748 11.1123L18.1123 5.74567C18.229 5.629 18.2873 5.49289 18.2873 5.33734C18.2873 5.18178 18.229 5.04567 18.1123 4.929C18.0151 4.81234 17.8841 4.754 17.7192 4.754C17.5543 4.754 17.4131 4.81234 17.2957 4.929L9.94567 12.279C10.354 13.329 10.4512 14.4229 10.2373 15.5608C10.0234 16.6987 9.48873 17.6951 8.63317 18.5498L6.99984 16.8873C7.68039 16.2068 8.02067 15.3804 8.02067 14.4082C8.02067 13.4359 7.68039 12.6096 6.99984 11.929L10.704 8.22484C10.8207 8.10817 10.879 7.97206 10.879 7.8165C10.879 7.66095 10.8207 7.52484 10.704 7.40817C10.5873 7.2915 10.4512 7.23784 10.2957 7.24717C10.1401 7.2565 10.004 7.31017 9.88734 7.40817L5.74567 11.5207C5.00678 12.2596 4.45261 13.0957 4.08317 14.029C3.71373 14.9623 3.529 15.9151 3.529 16.8873C3.529 17.8596 3.71373 18.8123 4.08317 19.7457C4.45261 20.679 5.00678 21.5151 5.74567 22.254Z"
    fill="current" />
</svg>