<svg width="1018" height="64" viewBox="0 0 450 88" fill="none" preserveAspectRatio="none"
  xmlns="http://www.w3.org/2000/svg">
  <path
    d="M0 27L18.8 23.3C37.7 19.7 75.3 12.3 112.8 7.70001C150.3 3.00001 187.7 1.00001 225.2 0.700012C262.7 0.300012 300.3 1.69999 337.8 1.79999C375.3 1.99999 412.7 1 431.3 0.5L450 0V88H431.3C412.7 88 375.3 88 337.8 88C300.3 88 262.7 88 225.2 88C187.7 88 150.3 88 112.8 88C75.3 88 37.7 88 18.8 88H0V27Z"
    fill="#E5586C" />
  <path
    d="M0 18L18.8 20.8C37.7 23.7 75.3 29.3 112.8 29.5C150.3 29.7 187.7 24.3 225.2 24.7C262.7 25 300.3 31 337.8 35.3C375.3 39.7 412.7 42.3 431.3 43.7L450 45V88H431.3C412.7 88 375.3 88 337.8 88C300.3 88 262.7 88 225.2 88C187.7 88 150.3 88 112.8 88C75.3 88 37.7 88 18.8 88H0V18Z"
    fill="#DD5C6F" />
  <path
    d="M0 26L18.8 26.7C37.7 27.3 75.3 28.7 112.8 29.8C150.3 31 187.7 32 225.2 34.5C262.7 37 300.3 41 337.8 39.3C375.3 37.7 412.7 30.3 431.3 26.7L450 23V88H431.3C412.7 88 375.3 88 337.8 88C300.3 88 262.7 88 225.2 88C187.7 88 150.3 88 112.8 88C75.3 88 37.7 88 18.8 88H0V26Z"
    fill="#D46071" />
  <path
    d="M0 53.9998L18.8 50.1998C37.7 46.2998 75.3 38.6998 112.8 38.1998C150.3 37.6998 187.7 44.2998 225.2 46.2998C262.7 48.2998 300.3 45.6998 337.8 45.6998C375.3 45.6998 412.7 48.2998 431.3 49.6998L450 50.9998V88H431.3C412.7 88 375.3 88 337.8 88C300.3 88 262.7 88 225.2 88C187.7 88 150.3 88 112.8 88C75.3 88 37.7 88 18.8 88H0V53.9998Z"
    fill="#CC6473" />
  <path
    d="M0 36L18.8 39.2C37.7 42.3 75.3 48.7 112.8 51.5C150.3 54.3 187.7 53.7 225.2 54C262.7 54.3 300.3 55.7 337.8 57.8C375.3 60 412.7 63 431.3 64.5L450 66V88H431.3C412.7 88 375.3 88 337.8 88C300.3 88 262.7 88 225.2 88C187.7 88 150.3 88 112.8 88C75.3 88 37.7 88 18.8 88H0V36Z"
    fill="#C36775" />
  <path
    d="M0 55.0001L18.8 55.8001C37.7 56.7001 75.3 58.3001 112.8 60.5001C150.3 62.7001 187.7 65.3001 225.2 63.7001C262.7 62.0001 300.3 56.0001 337.8 54.3001C375.3 52.7001 412.7 55.3001 431.3 56.7001L450 58.0001V88H431.3C412.7 88 375.3 88 337.8 88C300.3 88 262.7 88 225.2 88C187.7 88 150.3 88 112.8 88C75.3 88 37.7 88 18.8 88H0V55.0001Z"
    fill="#BA6A77" />
  <path
    d="M0 53.9998L18.8 57.3C37.7 60.7 75.3 67.3 112.8 67C150.3 66.7 187.7 59.3 225.2 56.8C262.7 54.3 300.3 56.7 337.8 58.7C375.3 60.7 412.7 62.3 431.3 63.2L450 64V88H431.3C412.7 88 375.3 88 337.8 88C300.3 88 262.7 88 225.2 88C187.7 88 150.3 88 112.8 88C75.3 88 37.7 88 18.8 88H0V53.9998Z"
    fill="#B16C78" />
  <path
    d="M0 74L18.8 73.7C37.7 73.3 75.3 72.6999 112.8 72.2999C150.3 71.9999 187.7 72 225.2 72.5C262.7 73 300.3 74 337.8 75C375.3 76 412.7 77 431.3 77.5L450 78V88H431.3C412.7 88 375.3 88 337.8 88C300.3 88 262.7 88 225.2 88C187.7 88 150.3 88 112.8 88C75.3 88 37.7 88 18.8 88H0V74Z"
    fill="#A86F79" />
  <path
    d="M0 77L18.8 77.8C37.7 78.7 75.3 80.3 112.8 80C150.3 79.7 187.7 77.3 225.2 77.8C262.7 78.3 300.3 81.7 337.8 81.7C375.3 81.7 412.7 78.3 431.3 76.7L450 75V88H431.3C412.7 88 375.3 88 337.8 88C300.3 88 262.7 88 225.2 88C187.7 88 150.3 88 112.8 88C75.3 88 37.7 88 18.8 88H0V77Z"
    fill="#9E7179" />
</svg>