<svg width="28" height="28" viewBox="0 0 28 28" fill="none" xmlns="http://www.w3.org/2000/svg">
  <path
    d="M8.40777 28C7.63706 28 6.97705 27.7256 6.42774 27.1768C5.87843 26.628 5.60424 25.9691 5.60518 25.2C5.60518 24.43 5.87983 23.7706 6.42914 23.2218C6.97845 22.673 7.63799 22.3991 8.40777 22.4C9.17848 22.4 9.83849 22.6744 10.3878 23.2232C10.9371 23.772 11.2113 24.4309 11.2104 25.2C11.2104 25.97 10.9357 26.6294 10.3864 27.1782C9.83709 27.727 9.17755 28.0009 8.40777 28ZM22.4207 28C21.65 28 20.99 27.7256 20.4407 27.1768C19.8914 26.628 19.6172 25.9691 19.6181 25.2C19.6181 24.43 19.8928 23.7706 20.4421 23.2218C20.9914 22.673 21.6509 22.3991 22.4207 22.4C23.1914 22.4 23.8514 22.6744 24.4007 23.2232C24.9501 23.772 25.2242 24.4309 25.2233 25.2C25.2233 25.97 24.9487 26.6294 24.3993 27.1782C23.85 27.727 23.1905 28.0009 22.4207 28ZM5.88544 2.8H26.5545C27.0917 2.8 27.5004 3.0394 27.7807 3.5182C28.0609 3.997 28.0726 4.48093 27.8157 4.97L22.8411 13.93C22.5842 14.3967 22.2395 14.7583 21.8069 15.015C21.3744 15.2717 20.9017 15.4 20.3888 15.4H9.94919L8.40777 18.2H25.2233V21H8.40777C7.3568 21 6.56273 20.5389 6.02557 19.6168C5.4884 18.6947 5.46505 17.7791 5.9555 16.87L7.84725 13.44L2.80259 2.8H0V0H4.55421L5.88544 2.8Z"
    fill="current" />
</svg>