<svg width="28" height="28" viewBox="0 0 28 28" fill="none" xmlns="http://www.w3.org/2000/svg">
  <path
    d="M14.5744 2.48242C13.4862 2.48242 12.3979 2.565 11.3096 2.72906C9.69084 4.15531 8.82678 6.62828 8.82678 9.04C8.82678 10.1447 9.00725 11.2166 9.35178 12.1572C9.70725 12.1408 10.0572 12.1298 10.4127 12.1298C11.4244 12.0861 12.119 12.1298 12.9612 12.272C12.6276 11.2658 12.4635 10.1556 12.4635 9.04C12.4635 6.65016 13.2072 4.16734 14.7658 2.4868H14.5744V2.48242ZM16.1549 2.54477C14.3885 3.93492 13.4479 6.51891 13.4479 9.04C13.4479 10.2541 13.6612 11.4244 14.0768 12.4252C14.733 12.5291 15.3838 12.6603 16.0401 12.8189C16.3572 12.8298 16.669 12.8955 16.9643 13.0048C16.308 11.8455 15.9252 10.3416 15.9252 8.69547C15.9252 6.95641 16.3518 5.37211 17.0791 4.19031C17.4182 3.63523 17.8393 3.16164 18.3151 2.81602C17.5932 2.69023 16.8768 2.59891 16.1549 2.54477ZM9.68537 3.03422C9.51037 3.07469 9.3299 3.1168 9.14944 3.16164L9.12756 3.16711L9.11116 3.17258C5.29342 3.80859 4.40912 9.49938 6.45881 12.4744C7.08225 12.365 7.70569 12.283 8.32912 12.2228C8.00647 11.233 7.8424 10.1392 7.8424 9.04C7.8424 6.89625 8.4385 4.68141 9.68537 3.03422ZM20.1143 3.18242C19.3104 3.18242 18.5283 3.71508 17.9213 4.70656C17.3088 5.69859 16.9096 7.12047 16.9096 8.69547C16.9096 10.2705 17.3088 11.6923 17.9213 12.6822C18.5283 13.6775 19.3104 14.208 20.1143 14.208C20.9182 14.208 21.7002 13.6775 22.3072 12.6822C22.9198 11.6923 23.319 10.2705 23.319 8.69547C23.319 7.12047 22.9198 5.69859 22.3072 4.70656C21.7002 3.71508 20.9182 3.18242 20.1143 3.18242ZM20.1088 10.5111H20.1197C20.5135 10.5166 20.7541 10.8009 20.8799 11.058C21.0057 11.315 21.0658 11.6048 21.0658 11.9275C21.0658 12.2502 21.0057 12.54 20.8799 12.797C20.7541 13.0541 20.5135 13.3384 20.1197 13.3439H20.1088C19.7151 13.3384 19.4744 13.0541 19.3487 12.797C19.2229 12.54 19.1627 12.2502 19.1627 11.9275C19.1627 11.6048 19.2229 11.315 19.3487 11.058C19.4744 10.8009 19.7151 10.5166 20.1088 10.5111ZM10.4127 13.1087C9.3299 13.1087 8.24162 13.1908 7.15334 13.3548C5.53459 14.7822 4.6678 17.2486 4.6678 19.6603C4.6678 21.9572 5.43561 24.1064 6.87444 25.233C8.02834 25.4189 9.18225 25.5173 10.3307 25.5173C8.9635 24.1009 8.30725 21.8916 8.30725 19.6658C8.30725 17.2705 9.04553 14.7877 10.6096 13.1087H10.4127ZM11.9987 13.1689C10.2268 14.558 9.28615 17.1447 9.28615 19.6658C9.28615 22.1267 10.1721 24.4236 11.8291 25.4736C12.6057 25.4189 13.3822 25.3259 14.1588 25.1947C13.683 24.8447 13.2674 24.3744 12.9283 23.822C12.201 22.6353 11.7744 21.0548 11.7744 19.3158C11.7744 17.5767 12.201 15.9963 12.9283 14.815C13.2674 14.2627 13.683 13.7869 14.1533 13.4423C13.4315 13.3166 12.7151 13.2236 11.9987 13.1689ZM5.52365 13.6666C5.34264 13.7048 5.16819 13.7486 4.99155 13.7923H4.96803L4.95108 13.7978C-0.0162442 14.6236 -0.0162442 24.0134 4.95108 24.8392L4.96803 24.8447H4.99155L5.19115 24.8939C4.17342 23.4939 3.68615 21.5853 3.68615 19.6603C3.68615 17.522 4.28115 15.3072 5.52365 13.6666ZM15.958 13.8033C15.1541 13.8033 14.3776 14.3392 13.7651 15.3291C13.1526 16.3189 12.7533 17.7408 12.7533 19.3158C12.7533 20.8962 13.1526 22.3127 13.7651 23.308C14.3776 24.2978 15.1541 24.8338 15.958 24.8338C16.7619 24.8338 17.5385 24.2978 18.151 23.308C18.7635 22.3127 19.1627 20.8962 19.1627 19.3158C19.1627 17.7408 18.7635 16.3189 18.151 15.3291C17.5385 14.3392 16.7619 13.8033 15.958 13.8033ZM23.5596 13.8033C23.0729 13.8088 22.5916 14.0056 22.1487 14.3884C22.1377 14.3994 22.1268 14.4103 22.1158 14.4158C21.8479 14.6564 21.5963 14.9627 21.3721 15.3345C20.7651 16.3244 20.3658 17.7408 20.3658 19.3158C20.3658 20.8908 20.7651 22.3127 21.3776 23.3025C21.9846 24.2978 22.7666 24.8283 23.5705 24.8283C24.3744 24.8283 25.1565 24.2978 25.7635 23.3025C26.376 22.3127 26.7752 20.8908 26.7752 19.3158C26.7752 17.7408 26.376 16.3189 25.7635 15.3291C25.1565 14.3337 24.3744 13.8033 23.5705 13.8033H23.5596ZM15.958 21.1369C16.3518 21.1369 16.5979 21.4213 16.7291 21.6783C16.8549 21.9353 16.9096 22.2252 16.9096 22.5533C16.9096 22.8759 16.8549 23.1712 16.7291 23.4228C16.5979 23.6853 16.3518 23.9642 15.958 23.9642C15.5643 23.9642 15.3182 23.6853 15.1924 23.4228C15.0612 23.1712 15.0065 22.8759 15.0065 22.5533C15.0065 22.2252 15.0612 21.9353 15.1924 21.6783C15.3182 21.4213 15.5643 21.1369 15.958 21.1369ZM23.5651 21.1369H23.576C23.9698 21.1423 24.2104 21.4267 24.3362 21.6838C24.4619 21.9408 24.5221 22.2306 24.5221 22.5533C24.5221 22.8759 24.4619 23.1658 24.3362 23.4228C24.2104 23.6798 23.9698 23.9642 23.576 23.9697H23.5651C23.1713 23.9642 22.9307 23.6798 22.8049 23.4228C22.6791 23.1658 22.619 22.8759 22.619 22.5533C22.619 22.2306 22.6791 21.9408 22.8049 21.6838C22.9307 21.4267 23.1713 21.1423 23.5651 21.1369ZM19.7643 22.0556C19.5729 22.7064 19.3104 23.3025 18.9932 23.822C18.5283 24.5658 17.9322 25.1673 17.2487 25.5064C18.7526 25.5556 20.2619 25.4572 21.7658 25.1947C21.2955 24.8502 20.8744 24.3744 20.5354 23.822C20.2182 23.3025 19.9557 22.7064 19.7643 22.0556Z"
    fill="current" />
</svg>