<svg width="1018" height="64" viewBox="0 0 1018 64" fill="none" preserveAspectRatio="none"
  xmlns="http://www.w3.org/2000/svg">
  <path
    d="M0 4.48L13.0078 3.64801C26.0156 2.75201 52.0311 1.088 78.0467 3.52C104.062 5.952 130.078 12.608 156.32 15.232C182.448 17.92 208.916 16.64 235.045 14.4C261.287 12.16 287.302 8.95999 313.318 7.87199C339.333 6.84799 365.349 7.872 391.364 8.96C417.38 10.048 443.396 11.072 469.637 9.40801C495.766 7.68001 522.234 3.20001 548.363 3.96801C574.604 4.67201 600.62 10.688 626.636 11.84C652.651 12.992 678.667 9.408 704.682 6.72C730.698 4.032 756.713 2.36801 782.955 4.28801C809.084 6.20801 835.552 11.712 861.68 14.592C887.922 17.472 913.938 17.728 939.953 14.848C965.969 11.968 991.984 5.95201 1004.99 3.00801L1018 0V64H1004.99C991.984 64 965.969 64 939.953 64C913.938 64 887.922 64 861.68 64C835.552 64 809.084 64 782.955 64C756.713 64 730.698 64 704.682 64C678.667 64 652.651 64 626.636 64C600.62 64 574.604 64 548.363 64C522.234 64 495.766 64 469.637 64C443.396 64 417.38 64 391.364 64C365.349 64 339.333 64 313.318 64C287.302 64 261.287 64 235.045 64C208.916 64 182.448 64 156.32 64C130.078 64 104.062 64 78.0467 64C52.0311 64 26.0156 64 13.0078 64H0V4.48Z"
    fill="#CB002D" />
  <path
    d="M0 8.96L13.0078 11.712C26.0156 14.528 52.0311 20.032 78.0467 21.12C104.062 22.208 130.078 18.752 156.32 17.92C182.448 17.088 208.916 18.752 235.045 20.608C261.287 22.4 287.302 24.32 313.318 25.152C339.333 26.048 365.349 25.792 391.364 23.488C417.38 21.12 443.396 16.64 469.637 15.808C495.766 14.912 522.234 17.728 548.363 18.048C574.604 18.368 600.62 16.192 626.636 16.512C652.651 16.832 678.667 19.648 704.682 18.688C730.698 17.728 756.713 12.992 782.955 12.032C809.084 11.072 835.552 13.888 861.68 13.952C887.922 14.08 913.938 11.52 939.953 11.072C965.969 10.688 991.984 12.352 1004.99 13.248L1018 14.08V64H1004.99C991.984 64 965.969 64 939.953 64C913.938 64 887.922 64 861.68 64C835.552 64 809.084 64 782.955 64C756.713 64 730.698 64 704.682 64C678.667 64 652.651 64 626.636 64C600.62 64 574.604 64 548.363 64C522.234 64 495.766 64 469.637 64C443.396 64 417.38 64 391.364 64C365.349 64 339.333 64 313.318 64C287.302 64 261.287 64 235.045 64C208.916 64 182.448 64 156.32 64C130.078 64 104.062 64 78.0467 64C52.0311 64 26.0156 64 13.0078 64H0V8.96Z"
    fill="#D9464A" />
  <path
    d="M0 28.1599L13.0078 28.9279C26.0156 29.6319 52.0311 31.1679 78.0467 31.4879C104.062 31.8079 130.078 30.9119 156.32 28.6719C182.448 26.4319 208.916 22.8479 235.045 20.7999C261.287 18.7519 287.302 18.3679 313.318 18.2399C339.333 18.1119 365.349 18.3679 391.364 20.2879C417.38 22.2079 443.396 25.7919 469.637 27.5199C495.766 29.2479 522.234 28.9919 548.363 27.7119C574.604 26.4319 600.62 24.1279 626.636 22.0799C652.651 20.0319 678.667 18.3679 704.682 18.2399C730.698 18.1119 756.713 19.6479 782.955 19.3919C809.084 19.1999 835.552 17.2799 861.68 19.1999C887.922 21.1199 913.938 26.8799 939.953 27.3919C965.969 27.9679 991.984 23.2319 1004.99 20.9279L1018 18.5599V64H1004.99C991.984 64 965.969 64 939.953 64C913.938 64 887.922 64 861.68 64C835.552 64 809.084 64 782.955 64C756.713 64 730.698 64 704.682 64C678.667 64 652.651 64 626.636 64C600.62 64 574.604 64 548.363 64C522.234 64 495.766 64 469.637 64C443.396 64 417.38 64 391.364 64C365.349 64 339.333 64 313.318 64C287.302 64 261.287 64 235.045 64C208.916 64 182.448 64 156.32 64C130.078 64 104.062 64 78.0467 64C52.0311 64 26.0156 64 13.0078 64H0V28.1599Z"
    fill="#E56C68" />
  <path
    d="M0 24.32L13.0078 25.792C26.0156 27.328 52.0311 30.272 78.0467 31.168C104.062 32 130.078 30.72 156.32 30.272C182.448 29.888 208.916 30.272 235.045 32C261.287 33.728 287.302 36.672 313.318 37.952C339.333 39.232 365.349 38.848 391.364 36.8C417.38 34.752 443.396 31.168 469.637 29.312C495.766 27.52 522.234 27.52 548.363 28.48C574.604 29.44 600.62 31.36 626.636 33.088C652.651 34.752 678.667 36.288 704.682 36.48C730.698 36.672 756.713 35.648 782.955 33.792C809.084 32 835.552 29.44 861.68 28.288C887.922 27.072 913.938 27.328 939.953 27.2C965.969 27.072 991.984 26.688 1004.99 26.432L1018 26.24V64H1004.99C991.984 64 965.969 64 939.953 64C913.938 64 887.922 64 861.68 64C835.552 64 809.084 64 782.955 64C756.713 64 730.698 64 704.682 64C678.667 64 652.651 64 626.636 64C600.62 64 574.604 64 548.363 64C522.234 64 495.766 64 469.637 64C443.396 64 417.38 64 391.364 64C365.349 64 339.333 64 313.318 64C287.302 64 261.287 64 235.045 64C208.916 64 182.448 64 156.32 64C130.078 64 104.062 64 78.0467 64C52.0311 64 26.0156 64 13.0078 64H0V24.32Z"
    fill="#EE8E88" />
  <path
    d="M0 35.84L13.0078 35.2C26.0156 34.56 52.0311 33.28 78.0467 32.768C104.062 32.192 130.078 32.448 156.32 34.24C182.448 36.032 208.916 39.488 235.045 39.488C261.287 39.488 287.302 36.032 313.318 34.56C339.333 33.088 365.349 33.472 391.364 33.6C417.38 33.728 443.396 33.472 469.637 34.752C495.766 36.032 522.234 38.848 548.363 39.68C574.604 40.512 600.62 39.488 626.636 39.36C652.651 39.232 678.667 40.128 704.682 41.088C730.698 42.048 756.713 43.072 782.955 42.24C809.084 41.408 835.552 38.592 861.68 37.248C887.922 35.84 913.938 35.84 939.953 35.84C965.969 35.84 991.984 35.84 1004.99 35.84H1018V64H1004.99C991.984 64 965.969 64 939.953 64C913.938 64 887.922 64 861.68 64C835.552 64 809.084 64 782.955 64C756.713 64 730.698 64 704.682 64C678.667 64 652.651 64 626.636 64C600.62 64 574.604 64 548.363 64C522.234 64 495.766 64 469.637 64C443.396 64 417.38 64 391.364 64C365.349 64 339.333 64 313.318 64C287.302 64 261.287 64 235.045 64C208.916 64 182.448 64 156.32 64C130.078 64 104.062 64 78.0467 64C52.0311 64 26.0156 64 13.0078 64H0V35.84Z"
    fill="#F5AFA9" />
  <path
    d="M0 45.4401H13.0078C26.0156 45.4401 52.0311 45.4401 78.0467 44.8001C104.062 44.1601 130.078 42.8801 156.32 42.2401C182.448 41.6001 208.916 41.6001 235.045 42.3681C261.287 43.0721 287.302 44.6081 313.318 45.1201C339.333 45.6321 365.349 45.2481 391.364 45.8881C417.38 46.5281 443.396 48.1921 469.637 47.8721C495.766 47.5521 522.234 45.2481 548.363 44.9921C574.604 44.8001 600.62 46.7201 626.636 47.1681C652.651 47.5521 678.667 46.5281 704.682 45.1201C730.698 43.7121 756.713 42.0481 782.955 42.1121C809.084 42.2401 835.552 44.1601 861.68 44.9281C887.922 45.6321 913.938 45.2481 939.953 45.3121C965.969 45.4401 991.984 46.0801 1004.99 46.4001L1018 46.7201V64H1004.99C991.984 64 965.969 64 939.953 64C913.938 64 887.922 64 861.68 64C835.552 64 809.084 64 782.955 64C756.713 64 730.698 64 704.682 64C678.667 64 652.651 64 626.636 64C600.62 64 574.604 64 548.363 64C522.234 64 495.766 64 469.637 64C443.396 64 417.38 64 391.364 64C365.349 64 339.333 64 313.318 64C287.302 64 261.287 64 235.045 64C208.916 64 182.448 64 156.32 64C130.078 64 104.062 64 78.0467 64C52.0311 64 26.0156 64 13.0078 64H0V45.4401Z"
    fill="#F8CFCB" />
  <path
    d="M0 57.6001L13.0078 56.4481C26.0156 55.2321 52.0311 52.9281 78.0467 52.9281C104.062 52.9281 130.078 55.2321 156.32 56.1921C182.448 57.1521 208.916 56.7681 235.045 55.5521C261.287 54.4001 287.302 52.4801 313.318 52.2881C339.333 52.0321 365.349 53.5681 391.364 53.3121C417.38 53.1201 443.396 51.2001 469.637 50.5601C495.766 49.9201 522.234 50.5601 548.363 50.4321C574.604 50.3681 600.62 49.4721 626.636 49.2801C652.651 49.0881 678.667 49.4721 704.682 49.4721C730.698 49.4721 756.713 49.0881 782.955 49.0881C809.084 49.0881 835.552 49.4721 861.68 50.0481C887.922 50.5601 913.938 51.2001 939.953 51.2001C965.969 51.2001 991.984 50.5601 1004.99 50.2401L1018 49.9201V64H1004.99C991.984 64 965.969 64 939.953 64C913.938 64 887.922 64 861.68 64C835.552 64 809.084 64 782.955 64C756.713 64 730.698 64 704.682 64C678.667 64 652.651 64 626.636 64C600.62 64 574.604 64 548.363 64C522.234 64 495.766 64 469.637 64C443.396 64 417.38 64 391.364 64C365.349 64 339.333 64 313.318 64C287.302 64 261.287 64 235.045 64C208.916 64 182.448 64 156.32 64C130.078 64 104.062 64 78.0467 64C52.0311 64 26.0156 64 13.0078 64H0V57.6001Z"
    fill="#F9EFEE" />
</svg>