<svg width="1018" height="64" viewBox="0 0 1018 64" fill="none" preserveAspectRatio="none"
  xmlns="http://www.w3.org/2000/svg">
  <path
    d="M0 48.3202L13.0078 50.8016C26.0156 53.3482 52.0311 58.3108 78.0467 58.2455C104.062 58.1149 130.078 52.8911 156.32 49.4956C182.448 46.1654 208.916 44.5983 235.045 46.4919C261.287 48.3202 287.302 53.5441 313.318 57.0048C339.333 60.5309 365.349 62.2286 391.364 63.2081C417.38 64.1876 443.396 64.4488 469.637 62.8816C495.766 61.3798 522.234 58.1149 548.363 54.9806C574.604 51.781 600.62 48.7773 626.636 47.8632C652.651 47.0143 678.667 48.3202 704.682 51.2586C730.698 54.197 756.713 58.7679 782.955 60.7268C809.084 62.6857 835.552 62.0327 861.68 58.572C887.922 55.0459 913.938 48.7773 939.953 46.1654C965.969 43.5535 991.984 44.5983 1004.99 45.186L1018 45.7083V0H1004.99C991.984 0 965.969 0 939.953 0C913.938 0 887.922 0 861.68 0C835.552 0 809.084 0 782.955 0C756.713 0 730.698 0 704.682 0C678.667 0 652.651 0 626.636 0C600.62 0 574.604 0 548.363 0C522.234 0 495.766 0 469.637 0C443.396 0 417.38 0 391.364 0C365.349 0 339.333 0 313.318 0C287.302 0 261.287 0 235.045 0C208.916 0 182.448 0 156.32 0C130.078 0 104.062 0 78.0467 0C52.0311 0 26.0156 0 13.0078 0H0V48.3202Z"
    fill="#CB002D" />
  <path
    d="M0 37.8726L13.0078 39.9622C26.0156 41.9864 52.0311 46.1654 78.0467 48.1897C104.062 50.2792 130.078 50.2792 156.32 48.1897C182.448 46.1654 208.916 41.9864 235.045 42.4435C261.287 42.9005 287.302 47.8632 313.318 48.7773C339.333 49.6262 365.349 46.3613 391.364 45.8389C417.38 45.2513 443.396 47.4714 469.637 48.6467C495.766 49.8221 522.234 50.0833 548.363 49.4303C574.604 48.7773 600.62 47.2102 626.636 47.3408C652.651 47.4714 678.667 49.1691 704.682 49.4956C730.698 49.8221 756.713 48.7773 782.955 46.1654C809.084 43.5535 835.552 39.3745 861.68 38.1991C887.922 37.0238 913.938 38.7215 939.953 40.158C965.969 41.5946 991.984 42.6394 1004.99 43.227L1018 43.7494V0H1004.99C991.984 0 965.969 0 939.953 0C913.938 0 887.922 0 861.68 0C835.552 0 809.084 0 782.955 0C756.713 0 730.698 0 704.682 0C678.667 0 652.651 0 626.636 0C600.62 0 574.604 0 548.363 0C522.234 0 495.766 0 469.637 0C443.396 0 417.38 0 391.364 0C365.349 0 339.333 0 313.318 0C287.302 0 261.287 0 235.045 0C208.916 0 182.448 0 156.32 0C130.078 0 104.062 0 78.0467 0C52.0311 0 26.0156 0 13.0078 0H0V37.8726Z"
    fill="#D9464A" />
  <path
    d="M0 37.8726L13.0078 39.5051C26.0156 41.1375 52.0311 44.4024 78.0467 44.4024C104.062 44.4024 130.078 41.1375 156.32 40.158C182.448 39.1786 208.916 40.4845 235.045 41.6599C261.287 42.9005 287.302 43.9453 313.318 42.117C339.333 40.2886 365.349 35.4566 391.364 35.2607C417.38 35.0648 443.396 39.3745 469.637 39.701C495.766 40.0274 522.234 36.3708 548.363 34.1507C574.604 31.9958 600.62 31.3429 626.636 32.8447C652.651 34.4119 678.667 38.0685 704.682 37.8726C730.698 37.6767 756.713 33.4977 782.955 34.1507C809.084 34.8036 835.552 40.2886 861.68 41.0069C887.922 41.7905 913.938 37.8726 939.953 35.4566C965.969 33.1059 991.984 32.1917 1004.99 31.7999L1018 31.3429V0H1004.99C991.984 0 965.969 0 939.953 0C913.938 0 887.922 0 861.68 0C835.552 0 809.084 0 782.955 0C756.713 0 730.698 0 704.682 0C678.667 0 652.651 0 626.636 0C600.62 0 574.604 0 548.363 0C522.234 0 495.766 0 469.637 0C443.396 0 417.38 0 391.364 0C365.349 0 339.333 0 313.318 0C287.302 0 261.287 0 235.045 0C208.916 0 182.448 0 156.32 0C130.078 0 104.062 0 78.0467 0C52.0311 0 26.0156 0 13.0078 0H0V37.8726Z"
    fill="#E56C68" />
  <path
    d="M0 35.2607L13.0078 35.0648C26.0156 34.8036 52.0311 34.4119 78.0467 33.1712C104.062 31.9958 130.078 30.0369 156.32 29.188C182.448 28.2739 208.916 28.5351 235.045 27.6209C261.287 26.772 287.302 24.8131 313.318 25.9885C339.333 27.2291 365.349 31.5388 391.364 31.5388C417.38 31.5388 443.396 27.2291 469.637 27.5556C495.766 27.8821 522.234 32.8447 548.363 34.7383C574.604 36.5667 600.62 35.2607 626.636 33.7589C652.651 32.1917 678.667 30.494 704.682 29.841C730.698 29.188 756.713 29.5798 782.955 30.1675C809.084 30.6899 835.552 31.3429 861.68 31.5388C887.922 31.7999 913.938 31.5388 939.953 31.147C965.969 30.6899 991.984 30.0369 1004.99 29.7104L1018 29.3839V0H1004.99C991.984 0 965.969 0 939.953 0C913.938 0 887.922 0 861.68 0C835.552 0 809.084 0 782.955 0C756.713 0 730.698 0 704.682 0C678.667 0 652.651 0 626.636 0C600.62 0 574.604 0 548.363 0C522.234 0 495.766 0 469.637 0C443.396 0 417.38 0 391.364 0C365.349 0 339.333 0 313.318 0C287.302 0 261.287 0 235.045 0C208.916 0 182.448 0 156.32 0C130.078 0 104.062 0 78.0467 0C52.0311 0 26.0156 0 13.0078 0H0V35.2607Z"
    fill="#EE8E88" />
  <path
    d="M0 20.8952L13.0078 20.5688C26.0156 20.2423 52.0311 19.5893 78.0467 18.8057C104.062 18.0874 130.078 17.1733 156.32 18.8057C182.448 20.4382 208.916 24.6172 235.045 25.7926C261.287 26.9679 287.302 25.2702 313.318 23.1807C339.333 21.0911 365.349 18.7404 391.364 19.1322C417.38 19.5893 443.396 22.8542 469.637 23.5071C495.766 24.1601 522.234 22.2012 548.363 21.0911C574.604 20.0464 600.62 19.7852 626.636 20.6994C652.651 21.5482 678.667 23.5071 704.682 23.5071C730.698 23.5071 756.713 21.5482 782.955 21.6788C809.084 21.7441 835.552 23.9642 861.68 23.9642C887.922 23.9642 913.938 21.7441 939.953 22.3971C965.969 23.0501 991.984 26.5761 1004.99 28.2739L1018 30.0369V0H1004.99C991.984 0 965.969 0 939.953 0C913.938 0 887.922 0 861.68 0C835.552 0 809.084 0 782.955 0C756.713 0 730.698 0 704.682 0C678.667 0 652.651 0 626.636 0C600.62 0 574.604 0 548.363 0C522.234 0 495.766 0 469.637 0C443.396 0 417.38 0 391.364 0C365.349 0 339.333 0 313.318 0C287.302 0 261.287 0 235.045 0C208.916 0 182.448 0 156.32 0C130.078 0 104.062 0 78.0467 0C52.0311 0 26.0156 0 13.0078 0H0V20.8952Z"
    fill="#F5AFA9" />
  <path
    d="M0 17.6304L13.0078 17.761C26.0156 17.8263 52.0311 18.0874 78.0467 18.4139C104.062 18.7404 130.078 19.1322 156.32 18.1527C182.448 17.1733 208.916 14.8226 235.045 15.1491C261.287 15.4755 287.302 18.4792 313.318 18.7404C339.333 18.9363 365.349 16.3244 391.364 14.5614C417.38 12.8636 443.396 11.9495 469.637 12.5371C495.766 13.0595 522.234 15.0185 548.363 16.1285C574.604 17.1733 600.62 17.4345 626.636 18.1527C652.651 18.9363 678.667 20.2423 704.682 19.5893C730.698 18.9363 756.713 16.3244 782.955 15.2143C809.084 14.1696 835.552 14.5614 861.68 15.4755C887.922 16.3244 913.938 17.6304 939.953 18.0874C965.969 18.4792 991.984 18.0874 1004.99 17.8263L1018 17.6304V0H1004.99C991.984 0 965.969 0 939.953 0C913.938 0 887.922 0 861.68 0C835.552 0 809.084 0 782.955 0C756.713 0 730.698 0 704.682 0C678.667 0 652.651 0 626.636 0C600.62 0 574.604 0 548.363 0C522.234 0 495.766 0 469.637 0C443.396 0 417.38 0 391.364 0C365.349 0 339.333 0 313.318 0C287.302 0 261.287 0 235.045 0C208.916 0 182.448 0 156.32 0C130.078 0 104.062 0 78.0467 0C52.0311 0 26.0156 0 13.0078 0H0V17.6304Z"
    fill="#F8CFCB" />
  <path
    d="M0 13.0595L13.0078 11.8842C26.0156 10.6435 52.0311 8.2928 78.0467 7.50923C104.062 6.72566 130.078 7.63982 156.32 7.63982C182.448 7.63982 208.916 6.72566 235.045 7.31333C261.287 7.83572 287.302 9.79464 313.318 10.2517C339.333 10.6435 365.349 9.59875 391.364 9.92524C417.38 10.2517 443.396 11.9495 469.637 12.8636C495.766 13.7125 522.234 13.7125 548.363 12.9289C574.604 12.2107 600.62 10.6435 626.636 9.92524C652.651 9.14167 678.667 9.14167 704.682 9.33756C730.698 9.59875 756.713 9.99054 782.955 10.317C809.084 10.6435 835.552 10.9047 861.68 10.6435C887.922 10.4476 913.938 9.79465 939.953 9.79465C965.969 9.79465 991.984 10.4476 1004.99 10.7741L1018 11.1006V0H1004.99C991.984 0 965.969 0 939.953 0C913.938 0 887.922 0 861.68 0C835.552 0 809.084 0 782.955 0C756.713 0 730.698 0 704.682 0C678.667 0 652.651 0 626.636 0C600.62 0 574.604 0 548.363 0C522.234 0 495.766 0 469.637 0C443.396 0 417.38 0 391.364 0C365.349 0 339.333 0 313.318 0C287.302 0 261.287 0 235.045 0C208.916 0 182.448 0 156.32 0C130.078 0 104.062 0 78.0467 0C52.0311 0 26.0156 0 13.0078 0H0V13.0595Z"
    fill="#F9EFEE" />
</svg>