<svg width="450" height="88" viewBox="0 0 450 88" fill="none" xmlns="http://www.w3.org/2000/svg">
<path d="M0 39.5443L18.8 31.357C37.7 23.2253 75.3 6.85064 112.8 3.45317C150.3 6.90508e-06 187.7 9.46836 225.2 17.0987C262.7 24.6734 300.3 30.4658 337.8 27.2911C375.3 24.1165 412.7 12.0861 431.3 6.01518L450 0V88H431.3C412.7 88 375.3 88 337.8 88C300.3 88 262.7 88 225.2 88C187.7 88 150.3 88 112.8 88C75.3 88 37.7 88 18.8 88H0V39.5443Z" fill="#4D0011"/>
<path d="M0 30.6329L18.8 28.0152C37.7 25.4532 75.3 20.2177 112.8 21.0532C150.3 21.8886 187.7 28.795 225.2 32.4152C262.7 36.0355 300.3 36.3696 337.8 34.3646C375.3 32.3038 412.7 27.8481 431.3 25.6203L450 23.3924V88H431.3C412.7 88 375.3 88 337.8 88C300.3 88 262.7 88 225.2 88C187.7 88 150.3 88 112.8 88C75.3 88 37.7 88 18.8 88H0V30.6329Z" fill="#460410"/>
<path d="M0 30.0759L18.8 32.4709C37.7 34.9215 75.3 39.7114 112.8 42.719C150.3 45.6709 187.7 46.7848 225.2 46.3392C262.7 45.838 300.3 43.8329 337.8 44.8354C375.3 45.838 412.7 49.9595 431.3 51.9645L450 54.0253V88H431.3C412.7 88 375.3 88 337.8 88C300.3 88 262.7 88 225.2 88C187.7 88 150.3 88 112.8 88C75.3 88 37.7 88 18.8 88H0V30.0759Z" fill="#3E070F"/>
<path d="M0 35.0886L18.8 32.6937C37.7 30.243 75.3 25.4531 112.8 27.8481C150.3 30.243 187.7 39.9342 225.2 39.7114C262.7 39.5443 300.3 29.519 337.8 30.243C375.3 31.0228 412.7 42.4962 431.3 48.2886L450 54.0253V88H431.3C412.7 88 375.3 88 337.8 88C300.3 88 262.7 88 225.2 88C187.7 88 150.3 88 112.8 88C75.3 88 37.7 88 18.8 88H0V35.0886Z" fill="#37090E"/>
<path d="M0 53.4683L18.8 54.1367C37.7 54.7494 75.3 56.0861 112.8 54.5823C150.3 53.0785 187.7 48.8456 225.2 49.4025C262.7 49.9595 300.3 55.3063 337.8 56.5316C375.3 57.7569 412.7 54.7494 431.3 53.3013L450 51.7975V88H431.3C412.7 88 375.3 88 337.8 88C300.3 88 262.7 88 225.2 88C187.7 88 150.3 88 112.8 88C75.3 88 37.7 88 18.8 88H0V53.4683Z" fill="#300B0D"/>
<path d="M0 67.3924L18.8 65.2759C37.7 63.1038 75.3 58.8709 112.8 55.2506C150.3 51.6304 187.7 48.6228 225.2 46.5063C262.7 44.3899 300.3 43.0532 337.8 42.9975C375.3 42.8861 412.7 44 431.3 44.5569L450 45.1139V88H431.3C412.7 88 375.3 88 337.8 88C300.3 88 262.7 88 225.2 88C187.7 88 150.3 88 112.8 88C75.3 88 37.7 88 18.8 88H0V67.3924Z" fill="#290C0C"/>
<path d="M0 59.595L18.8 57.757C37.7 55.8633 75.3 52.1874 112.8 50.5165C150.3 48.8456 187.7 49.1798 225.2 50.795C262.7 52.3545 300.3 55.1393 337.8 55.2507C375.3 55.3064 412.7 52.7443 431.3 51.4076L450 50.1266V88H431.3C412.7 88 375.3 88 337.8 88C300.3 88 262.7 88 225.2 88C187.7 88 150.3 88 112.8 88C75.3 88 37.7 88 18.8 88H0V59.595Z" fill="#220B0B"/>
<path d="M0 60.1519L18.8 62.1013C37.7 64.0506 75.3 67.9494 112.8 69.8987C150.3 71.8481 187.7 71.8481 225.2 70.1772C262.7 68.5063 300.3 65.1646 337.8 65.443C375.3 65.7215 412.7 69.6203 431.3 71.5696L450 73.519V88H431.3C412.7 88 375.3 88 337.8 88C300.3 88 262.7 88 225.2 88C187.7 88 150.3 88 112.8 88C75.3 88 37.7 88 18.8 88H0V60.1519Z" fill="#1B0A09"/>
<path d="M0 82.4304L18.8 82.7089C37.7 82.9873 75.3 83.5443 112.8 81.2051C150.3 78.9215 187.7 73.6861 225.2 72.2937C262.7 70.9013 300.3 73.3519 337.8 75.0228C375.3 76.6937 412.7 77.5848 431.3 78.0861L450 78.5316V88H431.3C412.7 88 375.3 88 337.8 88C300.3 88 262.7 88 225.2 88C187.7 88 150.3 88 112.8 88C75.3 88 37.7 88 18.8 88H0V82.4304Z" fill="#110808"/>
</svg>
