<svg width="18" height="18" viewBox="0 0 18 18" fill="none" xmlns="http://www.w3.org/2000/svg">
<path d="M1 18C0.71667 18 0.479003 17.856 0.287003 17.568C0.0950034 17.28 -0.000663206 16.924 3.46021e-06 16.5C3.46021e-06 16.075 0.0960036 15.7185 0.288004 15.4305C0.480004 15.1425 0.717337 14.999 1 15H17C17.2833 15 17.521 15.144 17.713 15.432C17.905 15.72 18.0007 16.076 18 16.5C18 16.925 17.904 17.2815 17.712 17.5695C17.52 17.8575 17.2827 18.001 17 18H1ZM1 10.5C0.71667 10.5 0.479003 10.356 0.287003 10.068C0.0950034 9.78 -0.000663206 9.424 3.46021e-06 9C3.46021e-06 8.575 0.0960036 8.2185 0.288004 7.9305C0.480004 7.6425 0.717337 7.499 1 7.5H17C17.2833 7.5 17.521 7.644 17.713 7.932C17.905 8.22 18.0007 8.576 18 9C18 9.425 17.904 9.7815 17.712 10.0695C17.52 10.3575 17.2827 10.501 17 10.5H1ZM1 3C0.71667 3 0.479003 2.856 0.287003 2.568C0.0950034 2.28 -0.000663206 1.924 3.46021e-06 1.5C3.46021e-06 1.075 0.0960036 0.718505 0.288004 0.430505C0.480004 0.142505 0.717337 -0.000994809 1 5.1903e-06H17C17.2833 5.1903e-06 17.521 0.144005 17.713 0.432005C17.905 0.720005 18.0007 1.076 18 1.5C18 1.925 17.904 2.2815 17.712 2.5695C17.52 2.8575 17.2827 3.001 17 3H1Z" fill="#CB002D"/>
</svg>
