<svg width="28" height="24" viewBox="0 0 28 24" fill="none" xmlns="http://www.w3.org/2000/svg">
  <path
    d="M26.5491 12.75C25.6288 11.4727 24.3239 10.6661 22.9091 10.5C22.9091 7.575 22.0436 5.1 20.3127 3.06C18.5818 1.02 16.4818 0 14 0C11.9891 0 10.1818 0.705 8.59091 2.145C7 3.585 5.94364 5.43 5.40909 7.725C3.81818 8.145 2.49455 9.12 1.48909 10.65C0.483636 12.18 0 13.92 0 15.87C0 18.135 0.687272 20.07 2.04909 21.645C3.42364 23.25 5.09091 24 7 24H22.2727C23.8636 24 25.2127 23.34 26.3327 22.035C27.44 20.715 28 19.125 28 17.25C28 15.525 27.5164 14.025 26.5491 12.75ZM24.5255 19.905C23.9145 20.64 23.1636 21 22.2727 21H7C5.76545 21 4.72182 20.49 3.85636 19.5C2.97818 18.435 2.54545 17.205 2.54545 15.75C2.54545 14.295 2.97818 13.065 3.85636 12.045C4.72182 11.01 5.76545 10.5 7 10.5H7.63636C7.63636 8.43 8.27273 6.66 9.49454 5.19C10.7418 3.75 12.2436 3 14 3C15.7564 3 17.2582 3.75 18.5055 5.19C19.7273 6.66 20.3636 8.43 20.3636 10.5V13.5H22.2727C23.1636 13.5 23.9145 13.86 24.5255 14.595C25.1364 15.33 25.4545 16.2 25.4545 17.25C25.4545 18.3 25.1491 19.185 24.5255 19.905ZM12.7273 16.5H15.2727V19.5H12.7273V16.5ZM17.0927 7.02C17.78 7.695 18.1236 8.625 18.1236 9.75C18.1236 10.5 17.9327 11.115 17.5636 11.73C17.1818 12.315 16.7109 12.75 16.1255 13.125C15.7945 13.365 15.5782 13.605 15.4636 13.89C15.3302 14.2385 15.265 14.6178 15.2727 15H12.7273C12.7273 14.175 12.8673 13.62 13.1091 13.23C13.3636 12.84 13.8091 12.375 14.4709 11.865C14.8018 11.625 15.0691 11.34 15.2727 10.98C15.4636 10.635 15.5655 10.215 15.5655 9.75C15.5655 9.27 15.4509 8.91 15.2218 8.64C14.9927 8.34 14.6364 8.205 14.2545 8.205C13.9109 8.205 13.6309 8.325 13.3636 8.55C13.1727 8.775 13.0455 9.12 13.0455 9.585H10.5382C10.4745 8.46 10.8182 7.5 11.5309 6.885C12.2182 6.3 13.1218 6 14.2545 6C15.4509 6 16.4055 6.345 17.0927 7.02Z"
    fill="current" />
</svg>