<svg width="286" height="48" viewBox="0 0 286 48" fill="none" xmlns="http://www.w3.org/2000/svg">
<path d="M1.83037 30.802L1.74902 31.6621C1.74902 33.2732 1.91173 34.8024 2.23713 36.2496C2.53542 37.6969 2.98285 38.994 3.57942 40.1408C4.77257 42.4346 6.3996 44.1413 8.46049 45.2608C10.4672 46.3531 12.7585 46.8992 15.3347 46.8992C17.6396 46.8992 19.7005 46.4077 21.5173 45.4247C23.28 44.4963 24.7036 43.2128 25.7883 41.5744C26.8458 39.936 27.5509 38.0792 27.9034 36.0039H21.7614C20.9479 39.6903 18.7243 41.5335 15.0906 41.5335C13.5721 41.5335 12.284 41.0829 11.2264 40.1818C10.1417 39.2534 9.34179 38.0519 8.82657 36.5773C8.28423 35.0755 8.01306 33.5463 8.01306 31.9898L7.93171 31.744C7.93171 28.4672 8.59608 25.9004 9.92481 24.0436C11.2807 22.1594 13.1653 21.2173 15.5787 21.2173C18.887 21.2173 20.9479 22.924 21.7614 26.3373H27.9034C27.7136 24.3985 27.0763 22.61 25.9917 20.9716C24.9612 19.4424 23.5104 18.1999 21.6394 17.2442C19.8496 16.3158 17.7481 15.8516 15.3347 15.8516C14.3042 15.8516 13.3551 15.9471 12.4874 16.1383C11.5383 16.3294 10.6705 16.5752 9.88413 16.8756C8.20288 17.5855 6.80635 18.5549 5.69455 19.7837C4.55564 21.0398 3.64722 22.6236 2.96929 24.5351C2.56253 25.6 2.27781 26.6104 2.1151 27.5661C1.92528 28.4399 1.83037 29.5186 1.83037 30.802Z" fill="#CB002D"/>
<path d="M29.3131 46.08H35.0483V16.6298H29.3131V46.08Z" fill="#CB002D"/>
<path d="M36.1605 40.3866C36.1605 38.2021 36.7571 36.55 37.9503 35.4304C39.1434 34.3109 40.6484 33.6146 42.4653 33.3415L47.7124 32.5632C48.9598 32.3721 49.5835 31.8396 49.5835 30.9658C49.5835 29.1909 48.4446 28.3034 46.1667 28.3034C45.0278 28.3034 44.133 28.5082 43.4821 28.9178C42.8856 29.3547 42.5195 30.1739 42.3839 31.3754H36.8927C37.0554 29.6005 37.4893 28.1532 38.1943 27.0336C38.9265 25.8868 39.9298 25.0539 41.2043 24.5351C41.8009 24.2893 42.5466 24.0845 43.4415 23.9207C44.3092 23.7568 45.2176 23.6749 46.1667 23.6749C48.77 23.6749 50.7359 24.0436 52.0647 24.7808C53.4205 25.5454 54.2747 26.4056 54.6272 27.3613C54.9798 28.2624 55.156 29.1363 55.156 29.9828V41.8202C55.156 42.7759 55.2374 43.5405 55.4001 44.114C55.5628 44.6874 55.9017 45.056 56.417 45.2199V46.08C52.3494 46.5443 50.2072 46.1893 49.9902 45.0151C49.8275 44.387 49.7462 43.8819 49.7462 43.4996C49.1496 44.1549 48.5259 44.7011 47.8751 45.138C47.1972 45.5749 46.465 45.9435 45.6786 46.2439C44.8922 46.517 43.9974 46.6535 42.994 46.6535C41.9365 46.6535 40.8789 46.4623 39.8213 46.08C38.818 45.7251 37.9638 45.0424 37.2588 44.032C36.5266 43.0763 36.1605 41.8612 36.1605 40.3866ZM49.5835 35.4304C49.0954 35.84 48.4039 36.1404 47.509 36.3316L44.7838 36.905C43.9431 37.0962 43.2516 37.4238 42.7093 37.888C42.167 38.3796 41.8958 39.1168 41.8958 40.0999C41.8958 40.8918 42.1534 41.4925 42.6686 41.9021C43.1839 42.339 43.8482 42.5575 44.6617 42.5575C45.0685 42.5575 45.4075 42.5165 45.6786 42.4346C45.9769 42.38 46.3701 42.2571 46.8582 42.066C47.5904 41.7656 48.2276 41.3014 48.77 40.6733C49.3123 39.9907 49.5835 39.1851 49.5835 38.2567V35.4304Z" fill="#CB002D"/>
<path d="M55.9549 39.1168C55.9549 40.3456 56.2261 41.4379 56.7684 42.3936C57.3108 43.3494 58.07 44.1549 59.0463 44.8103C59.9954 45.4383 61.1072 45.9026 62.3817 46.2029C63.1138 46.3395 63.7782 46.4487 64.3748 46.5306C65.0798 46.6125 65.7713 46.6535 66.4492 46.6535C68.3745 46.6535 70.0693 46.3395 71.5337 45.7114C72.9166 45.1107 74.0013 44.2505 74.7877 43.1309C75.547 42.0387 75.9266 40.7006 75.9266 39.1168C75.9266 37.2873 75.3029 35.922 74.0555 35.0208C72.781 34.1197 71.3032 33.4644 69.6219 33.0548L64.6595 31.826C63.1138 31.4437 62.341 30.8839 62.341 30.1466C62.341 28.7813 63.4935 28.0986 65.7984 28.0986C67.1543 28.0986 68.1034 28.3307 68.6457 28.7949C69.188 29.2318 69.5134 29.9282 69.6219 30.8839H75.2758C75.2758 30.4197 75.208 29.8872 75.0724 29.2864C74.9368 28.7949 74.7335 28.2488 74.4623 27.648C74.0284 26.5285 73.0929 25.5864 71.6557 24.8218C70.2456 24.0572 68.2254 23.6749 65.595 23.6749C63.6697 23.6749 62.0291 24.0026 60.6733 24.658C59.2903 25.3406 58.3005 26.2144 57.704 27.2794C57.0803 28.399 56.7684 29.6278 56.7684 30.9658C56.7684 32.8227 57.3786 34.2016 58.5988 35.1028C59.792 36.0039 61.2156 36.6592 62.8698 37.0688L67.7915 38.2567C69.3914 38.6663 70.1914 39.2807 70.1914 40.0999C70.1914 40.6733 69.8931 41.1785 69.2965 41.6154C68.6728 42.0796 67.7508 42.3117 66.5306 42.3117C63.4121 42.3117 61.8529 41.2468 61.8529 39.1168H55.9549Z" fill="#CB002D"/>
<path d="M75.7493 39.1168C75.7493 40.3456 76.0205 41.4379 76.5628 42.3936C77.1051 43.3494 77.8644 44.1549 78.8406 44.8103C79.7897 45.4383 80.9015 45.9026 82.176 46.2029C82.9082 46.3395 83.5726 46.4487 84.1691 46.5306C84.8742 46.6125 85.5657 46.6535 86.2436 46.6535C88.1689 46.6535 89.8637 46.3395 91.328 45.7114C92.711 45.1107 93.7957 44.2505 94.5821 43.1309C95.3414 42.0387 95.721 40.7006 95.721 39.1168C95.721 37.2873 95.0973 35.922 93.8499 35.0208C92.5754 34.1197 91.0975 33.4644 89.4163 33.0548L84.4539 31.826C82.9082 31.4437 82.1354 30.8839 82.1354 30.1466C82.1354 28.7813 83.2878 28.0986 85.5928 28.0986C86.9486 28.0986 87.8977 28.3307 88.4401 28.7949C88.9824 29.2318 89.3078 29.9282 89.4163 30.8839H95.0702C95.0702 30.4197 95.0024 29.8872 94.8668 29.2864C94.7312 28.7949 94.5278 28.2488 94.2567 27.648C93.8228 26.5285 92.8873 25.5864 91.4501 24.8218C90.04 24.0572 88.0198 23.6749 85.3894 23.6749C83.4641 23.6749 81.8235 24.0026 80.4677 24.658C79.0847 25.3406 78.0949 26.2144 77.4983 27.2794C76.8747 28.399 76.5628 29.6278 76.5628 30.9658C76.5628 32.8227 77.1729 34.2016 78.3932 35.1028C79.5864 36.0039 81.01 36.6592 82.6641 37.0688L87.5859 38.2567C89.1858 38.6663 89.9857 39.2807 89.9857 40.0999C89.9857 40.6733 89.6875 41.1785 89.0909 41.6154C88.4672 42.0796 87.5452 42.3117 86.3249 42.3117C83.2065 42.3117 81.6473 41.2468 81.6473 39.1168H75.7493Z" fill="#CB002D"/>
<path d="M97.13 46.08H102.865V24.2484H97.13V46.08ZM97.13 21.6679H102.865V16.3021H97.13V21.6679Z" fill="#CB002D"/>
<path d="M106.377 46.08H112.031V28.3853H115.733V24.2484H112.031V23.4292L112.113 21.6679C112.194 21.3675 112.357 21.1764 112.601 21.0944C112.845 21.0125 113.333 20.9716 114.065 20.9716H115.57V16.3021H112.723C108.492 16.3021 106.377 18.3638 106.377 22.4871V24.2484H103.205V28.3853H106.377V46.08Z" fill="#CB002D"/>
<path d="M116.222 46.08H121.957V24.2484H116.222V46.08ZM116.222 21.6679H121.957V16.3021H116.222V21.6679Z" fill="#CB002D"/>
<path d="M122.826 34.7341C122.826 42.6804 126.432 46.6535 133.645 46.6535C135.11 46.6535 136.506 46.3804 137.835 45.8343C139.109 45.2882 140.208 44.4963 141.13 43.4586C142.024 42.4756 142.702 41.2195 143.163 39.6903H137.306C137.116 40.3456 136.669 40.9054 135.964 41.3696C135.259 41.8339 134.486 42.066 133.645 42.066C132.018 42.066 130.757 41.6018 129.862 40.6733C128.94 39.7722 128.479 38.4478 128.479 36.7002H143.407V35.6762C143.407 33.519 143.082 31.5256 142.431 29.696C141.78 27.8665 140.709 26.4056 139.218 25.3133C137.726 24.2211 135.733 23.6749 133.238 23.6749C130.879 23.6749 128.9 24.1937 127.3 25.2314C125.727 26.2418 124.588 27.6071 123.883 29.3274C123.178 31.0477 122.826 32.85 122.826 34.7341ZM128.723 33.0548C129.13 29.9418 130.608 28.3853 133.157 28.3853C134.35 28.3853 135.354 28.7949 136.167 29.6141C136.981 30.5152 137.442 31.6621 137.55 33.0548H128.723Z" fill="#CB002D"/>
<path d="M165.195 46.08H159.663L159.582 43.3767C158.822 44.5782 157.927 45.411 156.897 45.8752C156.355 46.121 155.745 46.3122 155.067 46.4487C154.443 46.5852 153.833 46.6535 153.236 46.6535C151.609 46.6535 150.091 46.2166 148.681 45.3428C147.325 44.4963 146.226 43.1719 145.386 41.3696C144.572 39.5947 144.166 37.4648 144.166 34.9799C144.166 32.7407 144.505 30.802 145.182 29.1636C145.833 27.5525 146.864 26.2144 148.274 25.1495C149.603 24.1664 151.202 23.6749 153.074 23.6749C154.456 23.6749 155.65 23.9343 156.653 24.4532C157.629 24.972 158.578 25.8595 159.5 27.1156V16.6298H165.195V46.08ZM150.023 35.3485C150.023 36.9869 150.389 38.4888 151.121 39.8541C151.907 41.2195 153.114 41.9021 154.741 41.9021C156.341 41.9021 157.575 41.3014 158.443 40.0999C159.31 38.8984 159.744 37.4238 159.744 35.6762C159.744 30.9795 158.131 28.6311 154.904 28.6311C153.168 28.6311 151.921 29.2591 151.162 30.5152C150.402 31.7714 150.023 33.3824 150.023 35.3485Z" fill="#CB002D"/>
<path fill-rule="evenodd" clip-rule="evenodd" d="M221.575 1.91992V46.0799H226.588C226.91 46.0173 227.578 45.8009 227.578 45.0819V27.4963C227.578 23.5686 226.867 21.4616 225.79 18.2709C225.697 17.9955 225.602 17.7122 225.504 17.4188C225.117 16.2611 224.787 15.4371 224.517 14.7589C223.924 13.2749 223.611 12.4894 223.576 10.4341C223.527 7.44077 223.495 4.59857 223.495 4.59857L223.84 4.4481V2.8851L223.495 2.71858V1.91992H221.575Z" fill="#CB002D"/>
<path fill-rule="evenodd" clip-rule="evenodd" d="M218.278 1.91992V46.0799H213.265C212.943 46.0173 212.275 45.8009 212.275 45.0819V27.4963C212.275 23.5686 212.986 21.4616 214.063 18.2709C214.156 17.9955 214.251 17.7122 214.35 17.4188C214.737 16.2611 215.066 15.4371 215.337 14.7589C215.929 13.2749 216.243 12.4894 216.277 10.4341C216.326 7.44077 216.359 4.59857 216.359 4.59857L216.013 4.4481V2.8851L216.359 2.71858V1.91992H218.278Z" fill="#CB002D"/>
<path d="M163.579 30.802L163.498 31.6621C163.498 33.2732 163.661 34.8024 163.986 36.2496C164.284 37.6969 164.732 38.994 165.328 40.1408C166.521 42.4346 168.148 44.1413 170.209 45.2608C172.216 46.3531 174.507 46.8992 177.083 46.8992C179.388 46.8992 181.449 46.4077 183.266 45.4247C185.029 44.4963 186.452 43.2128 187.537 41.5744C188.595 39.936 189.3 38.0792 189.652 36.0039H183.51C182.697 39.6903 180.473 41.5335 176.839 41.5335C175.321 41.5335 174.033 41.0829 172.975 40.1818C171.891 39.2534 171.091 38.0519 170.575 36.5773C170.033 35.0755 169.762 33.5463 169.762 31.9898L169.68 31.744C169.68 28.4672 170.345 25.9004 171.674 24.0436C173.029 22.1594 174.914 21.2173 177.327 21.2173C180.636 21.2173 182.697 22.924 183.51 26.3373H189.652C189.462 24.3985 188.825 22.61 187.74 20.9716C186.71 19.4424 185.259 18.1999 183.388 17.2442C181.598 16.3158 179.497 15.8516 177.083 15.8516C176.053 15.8516 175.104 15.9471 174.236 16.1383C173.287 16.3294 172.419 16.5752 171.633 16.8756C169.952 17.5855 168.555 18.5549 167.443 19.7837C166.304 21.0398 165.396 22.6236 164.718 24.5351C164.311 25.6 164.027 26.6104 163.864 27.5661C163.674 28.4399 163.579 29.5186 163.579 30.802Z" fill="black"/>
<path d="M189.231 34.7341C189.231 42.6804 192.838 46.6535 200.051 46.6535C201.515 46.6535 202.912 46.3804 204.241 45.8343C205.515 45.2882 206.613 44.4963 207.535 43.4586C208.43 42.4756 209.108 41.2195 209.569 39.6903H203.712C203.522 40.3456 203.075 40.9054 202.37 41.3696C201.665 41.8339 200.892 42.066 200.051 42.066C198.424 42.066 197.163 41.6018 196.268 40.6733C195.346 39.7722 194.885 38.4478 194.885 36.7002H209.813V35.6762C209.813 33.519 209.488 31.5256 208.837 29.696C208.186 27.8665 207.115 26.4056 205.624 25.3133C204.132 24.2211 202.139 23.6749 199.644 23.6749C197.285 23.6749 195.306 24.1937 193.706 25.2314C192.133 26.2418 190.994 27.6071 190.289 29.3274C189.584 31.0477 189.231 32.85 189.231 34.7341ZM195.129 33.0548C195.536 29.9418 197.014 28.3853 199.563 28.3853C200.756 28.3853 201.76 28.7949 202.573 29.6141C203.387 30.5152 203.848 31.6621 203.956 33.0548H195.129Z" fill="black"/>
<path d="M229.979 40.3865C229.979 38.202 230.576 36.5499 231.769 35.4303C232.962 34.3108 234.467 33.6144 236.284 33.3414L241.531 32.5631C242.779 32.372 243.402 31.8395 243.402 30.9657C243.402 29.1908 242.264 28.3033 239.986 28.3033C238.847 28.3033 237.952 28.5081 237.301 28.9177C236.705 29.3546 236.338 30.1738 236.203 31.3753H230.712C230.874 29.6004 231.308 28.1531 232.013 27.0335C232.745 25.8866 233.749 25.0538 235.023 24.535C235.62 24.2892 236.366 24.0844 237.26 23.9206C238.128 23.7567 239.037 23.6748 239.986 23.6748C242.589 23.6748 244.555 24.0434 245.884 24.7807C247.239 25.5453 248.094 26.4055 248.446 27.3612C248.799 28.2623 248.975 29.1361 248.975 29.9826V41.8201C248.975 42.7758 249.056 43.5404 249.219 44.1138C249.382 44.6873 249.721 45.0559 250.236 45.2198V46.0799C246.168 46.5441 244.026 46.1892 243.809 45.015C243.646 44.3869 243.565 43.8817 243.565 43.4994C242.969 44.1548 242.345 44.7009 241.694 45.1378C241.016 45.5748 240.284 45.9434 239.498 46.2438C238.711 46.5168 237.816 46.6534 236.813 46.6534C235.755 46.6534 234.698 46.4622 233.64 46.0799C232.637 45.7249 231.783 45.0423 231.078 44.0319C230.346 43.0762 229.979 41.861 229.979 40.3865ZM243.402 35.4303C242.914 35.8399 242.223 36.1403 241.328 36.3314L238.603 36.9049C237.762 37.096 237.071 37.4237 236.528 37.8879C235.986 38.3794 235.715 39.1167 235.715 40.0998C235.715 40.8917 235.972 41.4924 236.488 41.902C237.003 42.3389 237.667 42.5574 238.481 42.5574C238.887 42.5574 239.226 42.5164 239.498 42.4345C239.796 42.3799 240.189 42.257 240.677 42.0658C241.409 41.7655 242.047 41.3013 242.589 40.6732C243.131 39.9905 243.402 39.185 243.402 38.2566V35.4303Z" fill="black"/>
<path d="M251.198 46.0799H256.933V34.734C256.933 31.2661 258.682 29.5321 262.18 29.5321L263.766 29.614V23.7567L263.237 23.7158L262.668 23.6748C261.448 23.6748 260.499 23.8933 259.821 24.3302C259.089 24.7671 258.519 25.2586 258.112 25.8047C257.678 26.3782 257.231 27.1154 256.77 28.0166L256.607 28.0985V24.2482H251.198V46.0799Z" fill="black"/>
<path d="M262.736 39.1167C262.736 40.3455 263.007 41.4378 263.55 42.3935C264.092 43.3493 264.851 44.1548 265.827 44.8102C266.776 45.4382 267.888 45.9024 269.163 46.2028C269.895 46.3393 270.559 46.4486 271.156 46.5305C271.861 46.6124 272.552 46.6534 273.23 46.6534C275.156 46.6534 276.85 46.3393 278.315 45.7113C279.698 45.1105 280.782 44.2504 281.569 43.1308C282.328 42.0385 282.708 40.7005 282.708 39.1167C282.708 37.2872 282.084 35.9218 280.837 35.0207C279.562 34.1196 278.084 33.4642 276.403 33.0546L271.441 31.8258C269.895 31.4436 269.122 30.8838 269.122 30.1465C269.122 28.7812 270.275 28.0985 272.58 28.0985C273.935 28.0985 274.884 28.3306 275.427 28.7948C275.969 29.2317 276.295 29.928 276.403 30.8838H282.057C282.057 30.4196 281.989 29.8871 281.854 29.2863C281.718 28.7948 281.515 28.2487 281.243 27.6479C280.81 26.5284 279.874 25.5863 278.437 24.8217C277.027 24.0571 275.006 23.6748 272.376 23.6748C270.451 23.6748 268.81 24.0025 267.454 24.6578C266.071 25.3405 265.082 26.2143 264.485 27.2793C263.861 28.3989 263.55 29.6277 263.55 30.9657C263.55 32.8225 264.16 34.2015 265.38 35.1026C266.573 36.0038 267.997 36.6591 269.651 37.0687L274.573 38.2566C276.173 38.6662 276.972 39.2806 276.972 40.0998C276.972 40.6732 276.674 41.1784 276.078 41.6153C275.454 42.0795 274.532 42.3116 273.312 42.3116C270.193 42.3116 268.634 41.2466 268.634 39.1167H262.736Z" fill="black"/>
</svg>
