<svg width="400" height="400" viewBox="0 0 13584 10190" preserveAspectRatio="none" fill="none"
  xmlns="http://www.w3.org/2000/svg">
  <g opacity="0.5" filter="url(#filter0_d_901_928)">
    <path
      d="M7641.25 10186C7719.69 9409.15 7798.13 8633.81 8092.28 7912.77C8387.93 7193.25 8897.79 6529.53 9516.25 6122.25C10133.2 5714.97 10858.8 5564.13 11554.2 5294.11C12249.6 5024.1 12914.8 4634.92 13580 4247.25V10186H7641.25Z"
      fill="#3D0000" />
  </g>
  <g opacity="0.5" filter="url(#filter1_d_901_928)">
    <path
      d="M8630.79 10186C8695.66 9538.88 8762.03 8891.75 9007.91 8291.39C9252.27 7692.54 9679.16 7138.94 10193.5 6799.54C10707.9 6460.14 11312.8 6334.94 11892.1 6110.18C12471.3 5885.42 13024.9 5561.11 13580 5236.79V10186H8630.79Z"
      fill="#4F0203" />
  </g>
  <g opacity="0.5" filter="url(#filter2_d_901_928)">
    <path
      d="M9620.33 10186C9673.13 9668.6 9725.92 9151.21 9922.02 8670.01C10118.1 8190.33 10459 7748.35 10870.8 7476.83C11282.6 7205.31 11765.3 7104.25 12229.9 6924.74C12693 6745.24 13136.5 6485.79 13580 6226.33V10186H9620.33Z"
      fill="#61060C" />
  </g>
  <g opacity="0.5" filter="url(#filter3_d_901_928)">
    <path
      d="M10609.9 10186C10649.1 9798.33 10688.3 9409.15 10836.1 9050.14C10984 8689.62 11238.9 8357.77 11548.1 8154.13C11857.4 7950.49 12219.4 7875.06 12566.3 7740.81C12914.8 7605.05 13246.6 7410.46 13580 7215.87V10186H10609.9Z"
      fill="#730C14" />
  </g>
  <g opacity="0.5" filter="url(#filter4_d_901_928)">
    <path
      d="M11600.9 10186C11626.6 9926.55 11652.2 9668.6 11750.3 9428.76C11849.8 9188.92 12018.8 8967.18 12225.4 8831.42C12430.6 8695.66 12673.4 8645.88 12904.2 8555.37C13136.5 8464.86 13358.3 8335.14 13580 8206.92V10186H11600.9Z"
      fill="#851320" />
  </g>
  <g opacity="0.5" filter="url(#filter5_d_901_928)">
    <path
      d="M12590.5 10186C12602.5 10056.3 12616.1 9926.55 12665.9 9807.38C12714.2 9686.71 12800.1 9576.59 12902.7 9508.71C13005.3 9440.83 13126 9415.19 13242.1 9371.44C13358.3 9326.19 13468.4 9261.32 13580 9196.46V10186H12590.5Z"
      fill="#901628" />
  </g>
  <g opacity="0.5" filter="url(#filter6_d_901_928)">
    <path
      d="M5944.25 4C5806.99 791.408 5671.23 1578.82 5313.72 2203.31C4956.22 2827.81 4376.98 3290.9 3865.62 3865.62C3352.75 4440.33 2909.26 5126.68 2277.23 5491.72C1645.19 5856.76 824.594 5900.51 4 5944.25V4H5944.25Z"
      fill="#3D0000" />
  </g>
  <g opacity="0.5" filter="url(#filter7_d_901_928)">
    <path
      d="M4953.21 4C4840.07 660.173 4726.94 1316.35 4428.27 1836.76C4131.1 2357.17 3648.4 2743.34 3221.51 3221.51C2794.62 3701.2 2425.05 4272.9 1898.61 4576.1C1370.65 4880.8 687.325 4917 4 4953.21V4H4953.21Z"
      fill="#4F0203" />
  </g>
  <g opacity="0.5" filter="url(#filter8_d_901_928)">
    <path
      d="M3963.67 4C3873.16 528.939 3782.65 1053.88 3544.32 1470.21C3305.98 1886.54 2919.82 2195.77 2577.41 2577.41C2236.5 2960.55 1940.84 3419.12 1519.99 3661.98C1097.62 3906.35 551.565 3935.01 4 3963.67V4H3963.67Z"
      fill="#61060C" />
  </g>
  <g opacity="0.5" filter="url(#filter9_d_901_928)">
    <path
      d="M2974.13 4C2906.25 397.704 2838.37 791.408 2658.86 1103.66C2479.36 1415.9 2189.74 1646.7 1934.81 1934.81C1678.37 2221.41 1456.63 2565.34 1139.86 2747.86C824.594 2930.38 414.297 2951.5 4 2974.13V4H2974.13Z"
      fill="#730C14" />
  </g>
  <g opacity="0.5" filter="url(#filter10_d_901_928)">
    <path
      d="M1984.59 4C1937.83 266.469 1892.57 528.939 1773.41 737.104C1654.24 945.269 1461.16 1099.13 1290.7 1290.7C1120.25 1482.28 972.421 1711.56 761.239 1833.74C551.565 1954.42 277.028 1969.5 4 1984.59V4H1984.59Z"
      fill="#851320" />
  </g>
  <g opacity="0.5" filter="url(#filter11_d_901_928)">
    <path
      d="M993.54 4C970.913 135.235 948.286 266.469 889.457 370.552C829.119 474.635 732.579 551.565 648.106 648.106C562.124 743.138 488.211 857.78 382.62 918.117C277.028 979.964 141.268 985.997 4 993.54V4H993.54Z"
      fill="#901628" />
  </g>
  <defs>
    <filter id="filter0_d_901_928" x="7629.25" y="4235.25" width="5954.75" height="5954.75" filterUnits="userSpaceOnUse"
      color-interpolation-filters="sRGB">
      <feFlood flood-opacity="0" result="BackgroundImageFix" />
      <feColorMatrix in="SourceAlpha" type="matrix" values="0 0 0 0 0 0 0 0 0 0 0 0 0 0 0 0 0 0 127 0"
        result="hardAlpha" />
      <feOffset dx="-4" dy="-4" />
      <feGaussianBlur stdDeviation="4" />
      <feComposite in2="hardAlpha" operator="out" />
      <feColorMatrix type="matrix" values="0 0 0 0 0 0 0 0 0 0 0 0 0 0 0 0 0 0 0.25 0" />
      <feBlend mode="normal" in2="BackgroundImageFix" result="effect1_dropShadow_901_928" />
      <feBlend mode="normal" in="SourceGraphic" in2="effect1_dropShadow_901_928" result="shape" />
    </filter>
    <filter id="filter1_d_901_928" x="8618.79" y="5224.79" width="4965.21" height="4965.21" filterUnits="userSpaceOnUse"
      color-interpolation-filters="sRGB">
      <feFlood flood-opacity="0" result="BackgroundImageFix" />
      <feColorMatrix in="SourceAlpha" type="matrix" values="0 0 0 0 0 0 0 0 0 0 0 0 0 0 0 0 0 0 127 0"
        result="hardAlpha" />
      <feOffset dx="-4" dy="-4" />
      <feGaussianBlur stdDeviation="4" />
      <feComposite in2="hardAlpha" operator="out" />
      <feColorMatrix type="matrix" values="0 0 0 0 0 0 0 0 0 0 0 0 0 0 0 0 0 0 0.25 0" />
      <feBlend mode="normal" in2="BackgroundImageFix" result="effect1_dropShadow_901_928" />
      <feBlend mode="normal" in="SourceGraphic" in2="effect1_dropShadow_901_928" result="shape" />
    </filter>
    <filter id="filter2_d_901_928" x="9608.33" y="6214.33" width="3975.67" height="3975.67" filterUnits="userSpaceOnUse"
      color-interpolation-filters="sRGB">
      <feFlood flood-opacity="0" result="BackgroundImageFix" />
      <feColorMatrix in="SourceAlpha" type="matrix" values="0 0 0 0 0 0 0 0 0 0 0 0 0 0 0 0 0 0 127 0"
        result="hardAlpha" />
      <feOffset dx="-4" dy="-4" />
      <feGaussianBlur stdDeviation="4" />
      <feComposite in2="hardAlpha" operator="out" />
      <feColorMatrix type="matrix" values="0 0 0 0 0 0 0 0 0 0 0 0 0 0 0 0 0 0 0.25 0" />
      <feBlend mode="normal" in2="BackgroundImageFix" result="effect1_dropShadow_901_928" />
      <feBlend mode="normal" in="SourceGraphic" in2="effect1_dropShadow_901_928" result="shape" />
    </filter>
    <filter id="filter3_d_901_928" x="10597.9" y="7203.87" width="2986.13" height="2986.13" filterUnits="userSpaceOnUse"
      color-interpolation-filters="sRGB">
      <feFlood flood-opacity="0" result="BackgroundImageFix" />
      <feColorMatrix in="SourceAlpha" type="matrix" values="0 0 0 0 0 0 0 0 0 0 0 0 0 0 0 0 0 0 127 0"
        result="hardAlpha" />
      <feOffset dx="-4" dy="-4" />
      <feGaussianBlur stdDeviation="4" />
      <feComposite in2="hardAlpha" operator="out" />
      <feColorMatrix type="matrix" values="0 0 0 0 0 0 0 0 0 0 0 0 0 0 0 0 0 0 0.25 0" />
      <feBlend mode="normal" in2="BackgroundImageFix" result="effect1_dropShadow_901_928" />
      <feBlend mode="normal" in="SourceGraphic" in2="effect1_dropShadow_901_928" result="shape" />
    </filter>
    <filter id="filter4_d_901_928" x="11588.9" y="8194.92" width="1995.08" height="1995.08" filterUnits="userSpaceOnUse"
      color-interpolation-filters="sRGB">
      <feFlood flood-opacity="0" result="BackgroundImageFix" />
      <feColorMatrix in="SourceAlpha" type="matrix" values="0 0 0 0 0 0 0 0 0 0 0 0 0 0 0 0 0 0 127 0"
        result="hardAlpha" />
      <feOffset dx="-4" dy="-4" />
      <feGaussianBlur stdDeviation="4" />
      <feComposite in2="hardAlpha" operator="out" />
      <feColorMatrix type="matrix" values="0 0 0 0 0 0 0 0 0 0 0 0 0 0 0 0 0 0 0.25 0" />
      <feBlend mode="normal" in2="BackgroundImageFix" result="effect1_dropShadow_901_928" />
      <feBlend mode="normal" in="SourceGraphic" in2="effect1_dropShadow_901_928" result="shape" />
    </filter>
    <filter id="filter5_d_901_928" x="12578.5" y="9184.46" width="1005.54" height="1005.54" filterUnits="userSpaceOnUse"
      color-interpolation-filters="sRGB">
      <feFlood flood-opacity="0" result="BackgroundImageFix" />
      <feColorMatrix in="SourceAlpha" type="matrix" values="0 0 0 0 0 0 0 0 0 0 0 0 0 0 0 0 0 0 127 0"
        result="hardAlpha" />
      <feOffset dx="-4" dy="-4" />
      <feGaussianBlur stdDeviation="4" />
      <feComposite in2="hardAlpha" operator="out" />
      <feColorMatrix type="matrix" values="0 0 0 0 0 0 0 0 0 0 0 0 0 0 0 0 0 0 0.25 0" />
      <feBlend mode="normal" in2="BackgroundImageFix" result="effect1_dropShadow_901_928" />
      <feBlend mode="normal" in="SourceGraphic" in2="effect1_dropShadow_901_928" result="shape" />
    </filter>
    <filter id="filter6_d_901_928" x="0" y="0" width="5956.25" height="5956.25" filterUnits="userSpaceOnUse"
      color-interpolation-filters="sRGB">
      <feFlood flood-opacity="0" result="BackgroundImageFix" />
      <feColorMatrix in="SourceAlpha" type="matrix" values="0 0 0 0 0 0 0 0 0 0 0 0 0 0 0 0 0 0 127 0"
        result="hardAlpha" />
      <feOffset dx="4" dy="4" />
      <feGaussianBlur stdDeviation="4" />
      <feComposite in2="hardAlpha" operator="out" />
      <feColorMatrix type="matrix" values="0 0 0 0 0 0 0 0 0 0 0 0 0 0 0 0 0 0 0.25 0" />
      <feBlend mode="normal" in2="BackgroundImageFix" result="effect1_dropShadow_901_928" />
      <feBlend mode="normal" in="SourceGraphic" in2="effect1_dropShadow_901_928" result="shape" />
    </filter>
    <filter id="filter7_d_901_928" x="0" y="0" width="4965.21" height="4965.21" filterUnits="userSpaceOnUse"
      color-interpolation-filters="sRGB">
      <feFlood flood-opacity="0" result="BackgroundImageFix" />
      <feColorMatrix in="SourceAlpha" type="matrix" values="0 0 0 0 0 0 0 0 0 0 0 0 0 0 0 0 0 0 127 0"
        result="hardAlpha" />
      <feOffset dx="4" dy="4" />
      <feGaussianBlur stdDeviation="4" />
      <feComposite in2="hardAlpha" operator="out" />
      <feColorMatrix type="matrix" values="0 0 0 0 0 0 0 0 0 0 0 0 0 0 0 0 0 0 0.25 0" />
      <feBlend mode="normal" in2="BackgroundImageFix" result="effect1_dropShadow_901_928" />
      <feBlend mode="normal" in="SourceGraphic" in2="effect1_dropShadow_901_928" result="shape" />
    </filter>
    <filter id="filter8_d_901_928" x="0" y="0" width="3975.67" height="3975.67" filterUnits="userSpaceOnUse"
      color-interpolation-filters="sRGB">
      <feFlood flood-opacity="0" result="BackgroundImageFix" />
      <feColorMatrix in="SourceAlpha" type="matrix" values="0 0 0 0 0 0 0 0 0 0 0 0 0 0 0 0 0 0 127 0"
        result="hardAlpha" />
      <feOffset dx="4" dy="4" />
      <feGaussianBlur stdDeviation="4" />
      <feComposite in2="hardAlpha" operator="out" />
      <feColorMatrix type="matrix" values="0 0 0 0 0 0 0 0 0 0 0 0 0 0 0 0 0 0 0.25 0" />
      <feBlend mode="normal" in2="BackgroundImageFix" result="effect1_dropShadow_901_928" />
      <feBlend mode="normal" in="SourceGraphic" in2="effect1_dropShadow_901_928" result="shape" />
    </filter>
    <filter id="filter9_d_901_928" x="0" y="0" width="2986.13" height="2986.13" filterUnits="userSpaceOnUse"
      color-interpolation-filters="sRGB">
      <feFlood flood-opacity="0" result="BackgroundImageFix" />
      <feColorMatrix in="SourceAlpha" type="matrix" values="0 0 0 0 0 0 0 0 0 0 0 0 0 0 0 0 0 0 127 0"
        result="hardAlpha" />
      <feOffset dx="4" dy="4" />
      <feGaussianBlur stdDeviation="4" />
      <feComposite in2="hardAlpha" operator="out" />
      <feColorMatrix type="matrix" values="0 0 0 0 0 0 0 0 0 0 0 0 0 0 0 0 0 0 0.25 0" />
      <feBlend mode="normal" in2="BackgroundImageFix" result="effect1_dropShadow_901_928" />
      <feBlend mode="normal" in="SourceGraphic" in2="effect1_dropShadow_901_928" result="shape" />
    </filter>
    <filter id="filter10_d_901_928" x="0" y="0" width="1996.59" height="1996.59" filterUnits="userSpaceOnUse"
      color-interpolation-filters="sRGB">
      <feFlood flood-opacity="0" result="BackgroundImageFix" />
      <feColorMatrix in="SourceAlpha" type="matrix" values="0 0 0 0 0 0 0 0 0 0 0 0 0 0 0 0 0 0 127 0"
        result="hardAlpha" />
      <feOffset dx="4" dy="4" />
      <feGaussianBlur stdDeviation="4" />
      <feComposite in2="hardAlpha" operator="out" />
      <feColorMatrix type="matrix" values="0 0 0 0 0 0 0 0 0 0 0 0 0 0 0 0 0 0 0.25 0" />
      <feBlend mode="normal" in2="BackgroundImageFix" result="effect1_dropShadow_901_928" />
      <feBlend mode="normal" in="SourceGraphic" in2="effect1_dropShadow_901_928" result="shape" />
    </filter>
    <filter id="filter11_d_901_928" x="0" y="0" width="1005.54" height="1005.54" filterUnits="userSpaceOnUse"
      color-interpolation-filters="sRGB">
      <feFlood flood-opacity="0" result="BackgroundImageFix" />
      <feColorMatrix in="SourceAlpha" type="matrix" values="0 0 0 0 0 0 0 0 0 0 0 0 0 0 0 0 0 0 127 0"
        result="hardAlpha" />
      <feOffset dx="4" dy="4" />
      <feGaussianBlur stdDeviation="4" />
      <feComposite in2="hardAlpha" operator="out" />
      <feColorMatrix type="matrix" values="0 0 0 0 0 0 0 0 0 0 0 0 0 0 0 0 0 0 0.25 0" />
      <feBlend mode="normal" in2="BackgroundImageFix" result="effect1_dropShadow_901_928" />
      <feBlend mode="normal" in="SourceGraphic" in2="effect1_dropShadow_901_928" result="shape" />
    </filter>
  </defs>
</svg>